<svg xmlns="http://www.w3.org/2000/svg" height="18" width="18" viewBox="0 0 18 18"><title>bell</title><g fill="#aaa6a6" stroke="#aaa6a6" class="nc-icon-wrapper"><path d="M15.75,13.25c-1.105,0-2-.895-2-2V6.5c0-2.623-2.127-4.75-4.75-4.75h0c-2.623,0-4.75,2.127-4.75,4.75v4.75c0,1.105-.895,2-2,2H15.75Z" fill="none" stroke="#aaa6a6" stroke-linecap="round" stroke-linejoin="round" stroke-width="1.5"></path><path d="M10.588,15.185c-.095-.117-.237-.185-.388-.185h-2.399c-.151,0-.293,.068-.388,.185-.095,.117-.132,.271-.101,.418,.173,.822,.868,1.397,1.689,1.397s1.516-.575,1.689-1.397c.031-.147-.006-.301-.101-.418Z" data-color="color-2" data-stroke="none" stroke="none"></path></g></svg>